<?xml version="1.0" encoding="UTF-8"?>
<svg version="1.1" xmlns="http://www.w3.org/2000/svg" width="500" height="500">
<path d="M0 0 C165 0 330 0 500 0 C500 165 500 330 500 500 C335 500 170 500 0 500 C0 335 0 170 0 0 Z " fill="#292929" transform="translate(0,0)"/>
<path d="M0 0 C115.44760101 0 115.44760101 0 141.65625 24.6328125 C152.40134523 35.48535868 158.90147358 48.37004266 163 63 C163.50660156 64.78857422 163.50660156 64.78857422 164.0234375 66.61328125 C167.18683526 78.51304764 168.43111836 90.63572862 169.67456055 102.86132812 C169.85027083 104.55595034 170.0311086 106.25024002 170.24128723 107.94093323 C173.50893737 134.82770764 172.187805 162.63524772 172.18530273 189.66430664 C172.18522158 194.25060987 172.19216357 198.83681296 172.20581055 203.4230957 C172.270566 225.55972421 172.32177233 247.67542345 171.10546875 269.78515625 C171.06598806 270.51407137 171.02650738 271.24298649 170.98583031 271.99398994 C169.8990103 291.38575895 168.20916335 311.50231826 162 330 C161.78617676 330.65210449 161.57235352 331.30420898 161.35205078 331.97607422 C156.77025665 345.76672485 150.23692121 356.54756466 140 367 C139.40960938 367.62648438 138.81921875 368.25296875 138.2109375 368.8984375 C104.91672426 401.31262748 36.1929183 391 0 391 C0 261.97 0 132.94 0 0 Z " fill="#292929" transform="translate(71,60)"/>
<path d="M0 0 C20.43960593 15.59048562 29.51450327 41.44949465 32.95703125 66.09765625 C34.54602595 78.68171385 34.38012157 91.31375411 34.08203125 103.97265625 C19.97096663 105.754167 5.87072188 107.33348194 -8.3046875 108.5 C-14.90878528 109.04427473 -21.50234386 109.69308229 -28.09472656 110.36352539 C-28.90393555 110.4433667 -29.71314453 110.52320801 -30.546875 110.60546875 C-31.59983765 110.71205811 -31.59983765 110.71205811 -32.67407227 110.82080078 C-35.42599728 111.00703703 -38.16065301 110.99586224 -40.91796875 110.97265625 C-40.93255127 110.04106689 -40.94713379 109.10947754 -40.9621582 108.1496582 C-41.02392332 104.62861025 -41.09819606 101.10825435 -41.18041992 97.58764648 C-41.21327776 96.07602562 -41.24142555 94.56429355 -41.2644043 93.05249023 C-41.45553004 80.80010999 -41.84665837 68.45770268 -48.91796875 57.97265625 C-50.56796875 57.97265625 -52.21796875 57.97265625 -53.91796875 57.97265625 C-58.11734017 64.8572831 -58.62204138 70.55228413 -58.54296875 78.53515625 C-58.53386475 79.69394287 -58.52476074 80.85272949 -58.51538086 82.04663086 C-58.25870635 91.62266749 -56.5156438 98.49480781 -51.91796875 106.97265625 C-51.20724998 108.3900841 -50.50039981 109.80945653 -49.796875 111.23046875 C-45.43163872 119.90157639 -40.49234503 128.01947104 -34.91796875 135.97265625 C-33.24699751 138.38635945 -31.58249918 140.80450822 -29.91796875 143.22265625 C-29.46494385 143.87975586 -29.01191895 144.53685547 -28.54516602 145.21386719 C34.46128198 236.80923789 34.46128198 236.80923789 34.20703125 282.22265625 C34.20219727 283.14087158 34.19736328 284.05908691 34.19238281 285.00512695 C33.93324363 314.55476794 27.26350841 343.13242129 6.1484375 364.97265625 C-2.16126763 372.71225687 -12.19907137 377.53544144 -22.91796875 380.97265625 C-24.36042969 381.48505859 -24.36042969 381.48505859 -25.83203125 382.0078125 C-49.40704837 389.37873558 -77.02500416 385.68895551 -98.91796875 374.97265625 C-102.45946421 372.86394323 -105.69906134 370.54187593 -108.91796875 367.97265625 C-109.52769531 367.52535156 -110.13742187 367.07804687 -110.765625 366.6171875 C-132.38290456 349.82563321 -137.65484079 320.40377304 -140.91796875 294.97265625 C-142.02190663 285.83269999 -141.95138256 276.69949806 -141.93359375 267.5078125 C-141.93246582 266.39668091 -141.93133789 265.28554932 -141.93017578 264.14074707 C-141.92724893 261.41804658 -141.92314918 258.69535323 -141.91796875 255.97265625 C-133.76396385 255.18419792 -125.60943856 254.40144976 -117.45421124 253.62574768 C-113.66638861 253.26528491 -109.87876612 252.90294558 -106.09155273 252.53613281 C-102.42855122 252.18142341 -98.76508805 251.83188479 -95.10126686 251.48574829 C-93.71184915 251.35360242 -92.32259961 251.21967427 -90.93353844 251.08383179 C-82.90173873 250.29969397 -74.98973931 249.77415233 -66.91796875 249.97265625 C-66.88823975 251.31674561 -66.88823975 251.31674561 -66.85791016 252.68798828 C-66.77876938 256.0840456 -66.69205871 259.47974887 -66.60058594 262.87548828 C-66.56282627 264.33179549 -66.52789251 265.78817934 -66.49609375 267.24462891 C-66.15984937 285.57561772 -66.15984937 285.57561772 -61.48046875 303.16015625 C-61.06925781 304.20558594 -60.65804687 305.25101562 -60.234375 306.328125 C-58.9948931 308.81812275 -58.14094871 310.33006022 -55.91796875 311.97265625 C-51.83423959 312.56781053 -51.83423959 312.56781053 -47.91796875 311.97265625 C-40.23742143 303.68574994 -41.26746701 291.59645117 -41.48828125 281.0625 C-41.89773634 272.81108986 -44.17404731 266.25782621 -47.91796875 258.97265625 C-48.25054687 258.30202148 -48.583125 257.63138672 -48.92578125 256.94042969 C-56.89172158 241.07493187 -67.34217942 226.62221073 -77.31689453 211.98486328 C-80.50240664 207.30965712 -83.68045741 202.6294285 -86.85604858 197.94747925 C-88.74395415 195.16977225 -90.64087898 192.39838873 -92.53833008 189.62719727 C-99.96952347 178.71627866 -106.77342177 167.6574824 -112.91796875 155.97265625 C-113.43359375 155.00360352 -113.94921875 154.03455078 -114.48046875 153.03613281 C-119.88825196 142.66025698 -124.18374085 131.99407551 -127.91796875 120.91015625 C-128.47883179 119.25222046 -128.47883179 119.25222046 -129.05102539 117.56079102 C-138.24615757 89.234504 -136.20699505 56.49146103 -123.32421875 29.65234375 C-119.61339794 22.38250843 -115.33308077 16.07122901 -109.91796875 9.97265625 C-109.32628906 9.286875 -108.73460937 8.60109375 -108.125 7.89453125 C-81.34744915 -21.10972425 -31.18078105 -21.66375551 0 0 Z " fill="#2A2A2A" transform="translate(405.91796875,70.02734375)"/>
<path d="M0 0 C20.43960593 15.59048562 29.51450327 41.44949465 32.95703125 66.09765625 C34.54602595 78.68171385 34.38012157 91.31375411 34.08203125 103.97265625 C19.97096663 105.754167 5.87072188 107.33348194 -8.3046875 108.5 C-14.90878528 109.04427473 -21.50234386 109.69308229 -28.09472656 110.36352539 C-28.90393555 110.4433667 -29.71314453 110.52320801 -30.546875 110.60546875 C-31.59983765 110.71205811 -31.59983765 110.71205811 -32.67407227 110.82080078 C-35.42599728 111.00703703 -38.16065301 110.99586224 -40.91796875 110.97265625 C-40.93255127 110.04106689 -40.94713379 109.10947754 -40.9621582 108.1496582 C-41.02392332 104.62861025 -41.09819606 101.10825435 -41.18041992 97.58764648 C-41.21327776 96.07602562 -41.24142555 94.56429355 -41.2644043 93.05249023 C-41.45553004 80.80010999 -41.84665837 68.45770268 -48.91796875 57.97265625 C-50.56796875 57.97265625 -52.21796875 57.97265625 -53.91796875 57.97265625 C-58.11734017 64.8572831 -58.62204138 70.55228413 -58.54296875 78.53515625 C-58.53386475 79.69394287 -58.52476074 80.85272949 -58.51538086 82.04663086 C-58.25870635 91.62266749 -56.5156438 98.49480781 -51.91796875 106.97265625 C-51.20724998 108.3900841 -50.50039981 109.80945653 -49.796875 111.23046875 C-45.43163872 119.90157639 -40.49234503 128.01947104 -34.91796875 135.97265625 C-33.24699751 138.38635945 -31.58249918 140.80450822 -29.91796875 143.22265625 C-29.46494385 143.87975586 -29.01191895 144.53685547 -28.54516602 145.21386719 C34.46128198 236.80923789 34.46128198 236.80923789 34.20703125 282.22265625 C34.20219727 283.14087158 34.19736328 284.05908691 34.19238281 285.00512695 C33.93324363 314.55476794 27.26350841 343.13242129 6.1484375 364.97265625 C-2.16126763 372.71225687 -12.19907137 377.53544144 -22.91796875 380.97265625 C-24.36042969 381.48505859 -24.36042969 381.48505859 -25.83203125 382.0078125 C-49.40704837 389.37873558 -77.02500416 385.68895551 -98.91796875 374.97265625 C-102.45946421 372.86394323 -105.69906134 370.54187593 -108.91796875 367.97265625 C-109.52769531 367.52535156 -110.13742187 367.07804687 -110.765625 366.6171875 C-132.38290456 349.82563321 -137.65484079 320.40377304 -140.91796875 294.97265625 C-142.02190663 285.83269999 -141.95138256 276.69949806 -141.93359375 267.5078125 C-141.93246582 266.39668091 -141.93133789 265.28554932 -141.93017578 264.14074707 C-141.92724893 261.41804658 -141.92314918 258.69535323 -141.91796875 255.97265625 C-133.76396385 255.18419792 -125.60943856 254.40144976 -117.45421124 253.62574768 C-113.66638861 253.26528491 -109.87876612 252.90294558 -106.09155273 252.53613281 C-102.42855122 252.18142341 -98.76508805 251.83188479 -95.10126686 251.48574829 C-93.71184915 251.35360242 -92.32259961 251.21967427 -90.93353844 251.08383179 C-82.90173873 250.29969397 -74.98973931 249.77415233 -66.91796875 249.97265625 C-66.88823975 251.31674561 -66.88823975 251.31674561 -66.85791016 252.68798828 C-66.77876938 256.0840456 -66.69205871 259.47974887 -66.60058594 262.87548828 C-66.56282627 264.33179549 -66.52789251 265.78817934 -66.49609375 267.24462891 C-66.15984937 285.57561772 -66.15984937 285.57561772 -61.48046875 303.16015625 C-61.06925781 304.20558594 -60.65804687 305.25101562 -60.234375 306.328125 C-58.9948931 308.81812275 -58.14094871 310.33006022 -55.91796875 311.97265625 C-51.83423959 312.56781053 -51.83423959 312.56781053 -47.91796875 311.97265625 C-40.23742143 303.68574994 -41.26746701 291.59645117 -41.48828125 281.0625 C-41.89773634 272.81108986 -44.17404731 266.25782621 -47.91796875 258.97265625 C-48.25054687 258.30202148 -48.583125 257.63138672 -48.92578125 256.94042969 C-56.89172158 241.07493187 -67.34217942 226.62221073 -77.31689453 211.98486328 C-80.50240664 207.30965712 -83.68045741 202.6294285 -86.85604858 197.94747925 C-88.74395415 195.16977225 -90.64087898 192.39838873 -92.53833008 189.62719727 C-99.96952347 178.71627866 -106.77342177 167.6574824 -112.91796875 155.97265625 C-113.43359375 155.00360352 -113.94921875 154.03455078 -114.48046875 153.03613281 C-119.88825196 142.66025698 -124.18374085 131.99407551 -127.91796875 120.91015625 C-128.47883179 119.25222046 -128.47883179 119.25222046 -129.05102539 117.56079102 C-138.24615757 89.234504 -136.20699505 56.49146103 -123.32421875 29.65234375 C-119.61339794 22.38250843 -115.33308077 16.07122901 -109.91796875 9.97265625 C-109.32628906 9.286875 -108.73460937 8.60109375 -108.125 7.89453125 C-81.34744915 -21.10972425 -31.18078105 -21.66375551 0 0 Z M-97.91796875 12.97265625 C-98.78228516 13.6996875 -98.78228516 13.6996875 -99.6640625 14.44140625 C-113.00320409 26.56249705 -120.42121805 46.49935193 -122.91796875 63.97265625 C-123.12911529 68.42336942 -123.14598652 72.87313691 -123.15820312 77.328125 C-123.16781648 79.43921746 -123.19884537 81.5492954 -123.23046875 83.66015625 C-123.60944564 131.11926867 -91.9485123 172.05877761 -66.234375 209.3125 C-30.43112765 261.21959765 -30.43112765 261.21959765 -30.60546875 284.53515625 C-30.6096582 285.31165527 -30.61384766 286.0881543 -30.61816406 286.88818359 C-30.81997717 297.41037525 -31.70213618 310.62899165 -39.4375 318.5234375 C-44.6037279 322.98575114 -48.12809493 323.40484313 -54.80859375 323.29296875 C-59.61693659 322.79763695 -62.59258644 321.49935095 -65.91796875 317.97265625 C-77.1207942 301.68947972 -76.93587225 280.91194813 -77.91796875 261.97265625 C-87.77785612 261.75317064 -97.43634434 262.42721296 -107.23046875 263.41015625 C-108.6451301 263.54676553 -110.05984364 263.68283542 -111.47460938 263.81835938 C-117.96788012 264.44602223 -124.45118981 265.11097678 -130.91796875 265.97265625 C-131.27640959 280.98121764 -130.92699887 295.24631957 -127.91796875 309.97265625 C-127.70140625 311.12636719 -127.48484375 312.28007812 -127.26171875 313.46875 C-124.54945871 326.65872887 -119.90050705 339.06563964 -111.91796875 349.97265625 C-111.48226563 350.60300781 -111.0465625 351.23335938 -110.59765625 351.8828125 C-101.27788658 364.13244988 -84.11822677 371.70794051 -69.27734375 373.75 C-64.12603141 374.23613378 -58.96373654 374.262859 -53.79296875 374.28515625 C-52.16657471 374.29349487 -52.16657471 374.29349487 -50.50732422 374.30200195 C-33.87883157 374.15459071 -18.21056387 370.38125638 -4.91796875 359.97265625 C-4.23347656 359.45058594 -3.54898438 358.92851562 -2.84375 358.390625 C5.47214267 351.62703229 10.78559767 342.67718804 15.08203125 332.97265625 C15.60410156 331.81636719 15.60410156 331.81636719 16.13671875 330.63671875 C25.79712379 306.89758389 27.22418559 274.36813694 19.08203125 249.97265625 C18.86772461 249.3060498 18.65341797 248.63944336 18.43261719 247.95263672 C14.99899928 237.47935239 10.2847108 227.66855904 5.08203125 217.97265625 C4.69402344 217.24111328 4.30601562 216.50957031 3.90625 215.75585938 C-5.3457481 198.47077722 -16.47330434 182.38891445 -27.43597412 166.1661377 C-73.36510388 98.18701553 -73.36510388 98.18701553 -68.38671875 64.36328125 C-66.73903986 57.88002302 -64.30140524 53.03107868 -59.16796875 48.59765625 C-55.26737977 46.64736176 -52.15318702 46.18470866 -47.91796875 46.97265625 C-41.69051295 49.50585861 -38.68966527 52.89218707 -35.91796875 58.97265625 C-32.20982655 69.08577134 -30.82511524 78.7160747 -30.35546875 89.41015625 C-30.29069336 90.79364258 -30.29069336 90.79364258 -30.22460938 92.20507812 C-30.11941944 94.46081788 -30.01727768 96.71665124 -29.91796875 98.97265625 C-18.06944819 98.283 -6.24580382 97.3874808 5.58203125 96.41015625 C7.29165516 96.27004177 9.00129053 96.13006712 10.7109375 95.99023438 C14.83476875 95.65264583 18.95844237 95.31319191 23.08203125 94.97265625 C23.09907073 92.1458073 23.11138464 89.31906364 23.12109375 86.4921875 C23.12633057 85.70332153 23.13156738 84.91445557 23.13696289 84.10168457 C23.19852482 60.09868689 17.36443055 34.31332724 1.08203125 15.97265625 C0.56253906 15.36035156 0.04304687 14.74804688 -0.4921875 14.1171875 C-10.11275234 3.56484882 -26.67072238 -3.28292945 -40.93432617 -4.14990234 C-61.9655048 -4.88038218 -81.69247739 -1.45000274 -97.91796875 12.97265625 Z " fill="#F9F9F9" transform="translate(405.91796875,70.02734375)"/>
<path d="M0 0 C115.44760101 0 115.44760101 0 141.65625 24.6328125 C152.40134523 35.48535868 158.90147358 48.37004266 163 63 C163.50660156 64.78857422 163.50660156 64.78857422 164.0234375 66.61328125 C167.18683526 78.51304764 168.43111836 90.63572862 169.67456055 102.86132812 C169.85027083 104.55595034 170.0311086 106.25024002 170.24128723 107.94093323 C173.50893737 134.82770764 172.187805 162.63524772 172.18530273 189.66430664 C172.18522158 194.25060987 172.19216357 198.83681296 172.20581055 203.4230957 C172.270566 225.55972421 172.32177233 247.67542345 171.10546875 269.78515625 C171.06598806 270.51407137 171.02650738 271.24298649 170.98583031 271.99398994 C169.8990103 291.38575895 168.20916335 311.50231826 162 330 C161.78617676 330.65210449 161.57235352 331.30420898 161.35205078 331.97607422 C156.77025665 345.76672485 150.23692121 356.54756466 140 367 C139.40960938 367.62648438 138.81921875 368.25296875 138.2109375 368.8984375 C104.91672426 401.31262748 36.1929183 391 0 391 C0 261.97 0 132.94 0 0 Z M11 10 C11 132.1 11 254.2 11 380 C75.49598916 384.1494636 75.49598916 384.1494636 134.04199219 358.19995117 C142.49563091 349.6304489 147.10106043 340.21789846 151 329 C151.36996094 327.94554687 151.73992187 326.89109375 152.12109375 325.8046875 C161.37474935 296.49544369 161.32900646 264.27983228 161.26865101 233.86520314 C161.26343506 230.38754481 161.26832421 226.90989469 161.27142334 223.43223572 C161.27501967 217.60104431 161.27038062 211.76990424 161.26074219 205.9387207 C161.24987133 199.28695556 161.25339113 192.63531326 161.264395 185.98355108 C161.27360011 180.17705075 161.27468984 174.37058644 161.26951766 168.56408113 C161.26646843 165.13795948 161.26662337 161.71193892 161.27259064 158.28581429 C162.70288333 91.071527 162.70288333 91.071527 134.546875 32.390625 C123.96105439 22.47057927 112.15302018 16.96990401 98.125 13.875 C97.42576416 13.71628418 96.72652832 13.55756836 96.00610352 13.39404297 C68.23751371 7.65879942 38.85458476 10 11 10 Z " fill="#F9F9F9" transform="translate(71,60)"/>
<path d="M0 0 C19.18181818 0 19.18181818 0 27.3125 5.0625 C41.15682095 20.19466476 40.31141565 47.14258533 40.2746582 66.56542969 C40.27902312 68.12843057 40.28421205 69.69142933 40.29014587 71.25442505 C40.30335715 75.440678 40.30413477 79.62683971 40.30158257 83.8131094 C40.30050042 87.33614148 40.30542764 90.85915601 40.310188 94.38218427 C40.32122175 102.70923039 40.32175562 111.03623138 40.31567383 119.36328125 C40.30964129 127.88952244 40.32194099 136.41559831 40.3432439 144.94181132 C40.36098723 152.32081153 40.36684135 159.69975972 40.36360615 167.07878041 C40.36181305 171.46002416 40.36422783 175.84114999 40.37832069 180.22237396 C40.55472172 240.18729947 40.55472172 240.18729947 27 255 C19.39724336 260.86498369 9.15466853 261 0 261 C0 174.87 0 88.74 0 0 Z " fill="#F8F8F8" transform="translate(136,125)"/>
<path d="M0 0 C8.40320833 1.20045833 8.40320833 1.20045833 11.6484375 5.3828125 C18.56856094 18.78305154 18.15140722 35.57315798 18.16113281 50.21801758 C18.16576883 51.85189931 18.17079452 53.48577998 18.17617798 55.11965942 C18.18923389 59.53974949 18.19573429 63.95982442 18.20018864 68.37993073 C18.20313214 71.15125047 18.20723941 73.9225662 18.21169281 76.6938839 C18.22535365 85.39277907 18.23502559 94.09166492 18.2388947 102.79057008 C18.24336348 112.77885902 18.26086233 122.7670103 18.2898953 132.75525743 C18.31163909 140.5094056 18.3216058 148.26351542 18.32293582 156.0176937 C18.32397538 160.6326416 18.32969873 165.24745989 18.34775543 169.86237526 C18.54131187 222.33814529 18.54131187 222.33814529 9.1875 235.5625 C7 237 7 237 0 238 C0 159.46 0 80.92 0 0 Z " fill="#292929" transform="translate(147,136)"/>
</svg>
